<svg version="1.2" xmlns="http://www.w3.org/2000/svg" viewBox="0 0 196 34" width="196" height="34">
	<title>logo-svg</title>
	<style>
		.s0 { fill: #f13024 } 
		.s1 { fill: #ffffff } 
	</style>
	<path id="Layer" class="s0" d="m191.2 33v-4.4h4.1v4.4z"/>
	<path id="Port" class="s1" aria-label="Port"  d="m13 22.6h-5v-5.6h5.3q1.5 0 2.6-0.6 1.1-0.6 1.7-1.7 0.6-1.1 0.6-2.6 0-1.5-0.6-2.6-0.6-1.1-1.7-1.7-1.1-0.6-2.6-0.6h-5.3v-5.6h5q3.7 0 6.3 1.2 2.7 1.2 4.1 3.5 1.4 2.3 1.4 5.5v0.6q0 3.2-1.4 5.5-1.4 2.3-4.1 3.5-2.6 1.2-6.3 1.2zm-4.2 8.4h-6.5v-29.4h6.5zm30.2 0.7q-2.9 0-5.1-0.9-2.3-0.9-3.8-2.4-1.5-1.6-2.3-3.6-0.8-2-0.8-4.3v-0.9q0-2.3 0.8-4.3 0.8-2.1 2.4-3.7 1.6-1.5 3.8-2.4 2.2-0.9 5-0.9 2.8 0 5 0.9 2.3 0.9 3.8 2.4 1.6 1.6 2.4 3.7 0.9 2 0.9 4.3v0.9q0 2.3-0.8 4.3-0.8 2-2.4 3.6-1.5 1.5-3.7 2.4-2.3 0.9-5.2 0.9zm0-5.4q1.9 0 3.1-0.8 1.3-0.8 1.9-2.2 0.7-1.5 0.7-3.2 0-1.9-0.7-3.3-0.7-1.4-2-2.3-1.2-0.8-3-0.8-1.8 0-3 0.8-1.3 0.9-2 2.3-0.6 1.4-0.6 3.3 0 1.7 0.6 3.2 0.6 1.4 1.9 2.2 1.3 0.8 3.1 0.8zm23 4.7h-6.4v-22h5v9.4h-0.1q0-4.6 2-7.1 2-2.5 5.7-2.5h0.9v5.5h-1.6q-2.7 0-4.1 1.4-1.4 1.4-1.4 4.1zm24 0.3h-3.1q-3.3 0-5.4-0.8-2-0.9-3-2.8-0.9-1.9-0.9-5.3v-19.2h6v19.5q0 1.5 0.8 2.4 0.8 0.8 2.3 0.8h3.3zm0-17.5h-15.7v-4.7h15.7z"/>
	<path id="Folio" class="s1" aria-label="Folio"  d="m97.7 31h-4.8v-29.2h4.8zm11.3-12.6h-12.1v-4.2h12.1zm0.6-12.4h-12.7v-4.2h12.7zm14.9 25.8q-2.8 0-5-0.9-2.1-1-3.6-2.5-1.5-1.6-2.3-3.6-0.7-2-0.7-4.1v-0.8q0-2.1 0.7-4.1 0.8-2 2.3-3.6 1.5-1.6 3.7-2.5 2.2-0.9 4.9-0.9 2.8 0 4.9 0.9 2.2 0.9 3.7 2.5 1.5 1.6 2.3 3.6 0.8 2 0.8 4.1v0.8q0 2.1-0.8 4.1-0.8 2-2.2 3.6-1.5 1.5-3.7 2.5-2.1 0.9-5 0.9zm0-4.1q2.2 0 3.8-0.9 1.5-1 2.3-2.7 0.9-1.7 0.9-3.8 0-2.1-0.9-3.8-0.8-1.7-2.4-2.6-1.5-1-3.7-1-2.1 0-3.7 1-1.6 0.9-2.4 2.6-0.8 1.7-0.8 3.8 0 2.1 0.8 3.8 0.8 1.7 2.4 2.7 1.5 0.9 3.7 0.9zm22 3.4h-4.7v-29.2h4.7zm0-25.6h-7.6v-3.6h7.6zm12.6 25.6h-4.7v-21.6h4.7zm0-17.9h-7.9v-3.6h7.9zm-3.2-6.6q-1.4 0-2.1-0.8-0.7-0.8-0.7-2 0-1.1 0.7-1.9 0.7-0.8 2.1-0.8 1.5 0 2.2 0.8 0.7 0.8 0.7 1.9 0 1.2-0.7 2-0.7 0.8-2.2 0.8zm20.3 25.2q-2.9 0-5-0.9-2.2-0.9-3.7-2.5-1.5-1.6-2.2-3.5-0.8-2-0.8-4.1v-0.8q0-2.2 0.8-4.2 0.8-2 2.3-3.5 1.5-1.6 3.6-2.5 2.2-1 5-1 2.7 0 4.8 1 2.2 0.9 3.7 2.5 1.5 1.5 2.3 3.5 0.8 2 0.8 4.2v0.8q0 2.1-0.8 4.1-0.7 1.9-2.2 3.5-1.5 1.6-3.6 2.5-2.2 0.9-5 0.9zm0-4q2.2 0 3.7-1 1.6-1 2.4-2.7 0.8-1.7 0.8-3.7 0-2.2-0.8-3.8-0.9-1.7-2.4-2.7-1.6-1-3.7-1-2.2 0-3.8 1-1.5 1-2.4 2.7-0.8 1.6-0.8 3.8 0 2 0.8 3.7 0.8 1.7 2.4 2.7 1.6 1 3.8 1z"/>
</svg>